<svg xmlns="http://www.w3.org/2000/svg" viewBox="0 0 271 250.76"><defs><style>.cls-1{fill:#fefefe;}</style></defs><g id="Layer_2" data-name="Layer 2"><g id="Layer_1-2" data-name="Layer 1"><path d="M271,58.67c-2,7.21-3.18,14.59-4.7,21.89-4.71,22.58-9.28,45.18-13.94,67.76-1.63,7.89-6.6,11.66-15.18,11.66H78.41c-3.94,0-3.93,0-3.13,3.87.86,4.14,1.81,8.26,2.52,12.42.36,2.09,1.11,2.76,3.37,2.76q77.4-.12,154.8-.08c3,0,5.6.48,7.37,3.17a6.5,6.5,0,0,1-4.28,10,19.63,19.63,0,0,1-3.43.19H80.56c-9.24,0-13.68-3.65-15.57-12.78Q49.39,103.78,33.82,28a4.52,4.52,0,0,0-3.06-3.72c-8.83-3.71-17.61-7.54-26.38-11.4A6.91,6.91,0,0,1,.06,5.71,6.8,6.8,0,0,1,6.17,0,7,7,0,0,1,10,.85q13.8,6,27.6,11.92A14.54,14.54,0,0,1,46.54,24c1.08,5.53,2.3,11,3.31,16.58.35,1.87,1.06,2.51,3.07,2.5,20.19-.09,40.39,0,60.59,0q71.05,0,142.11,0c5.79,0,10.59,1.6,13.6,6.85a38.19,38.19,0,0,1,1.78,4Z"/><path d="M173.48,226.58a23.82,23.82,0,0,1,24.24-23.43c13,.36,23.52,11.16,23.35,23.86-.19,13.13-11.2,24-24,23.75C183.82,250.47,173.15,239.53,173.48,226.58Z"/><path d="M113.73,203.14a24.06,24.06,0,0,1,23.75,23.74c.06,12.91-11,24-23.93,23.88a23.81,23.81,0,0,1,.18-47.62Z"/><path class="cls-1" d="M155.49,56.4q49.62,0,99.23-.07c2.65,0,2.9.75,2.42,3q-8.79,42.27-17.42,84.57c-.41,2-1,2.8-3.32,2.8q-81-.14-161.94,0c-2,0-2.81-.41-3.25-2.56q-8.68-42.82-17.66-85.59c-.47-2.25.58-2.17,2.18-2.17Q105.62,56.43,155.49,56.4Z"/><path class="cls-1" d="M197.28,216.41a10.53,10.53,0,1,1-10.5,10.33A10.58,10.58,0,0,1,197.28,216.41Z"/><path class="cls-1" d="M103.17,227a10.48,10.48,0,1,1,21-.11,10.48,10.48,0,1,1-21,.11Z"/></g></g></svg>
