<?xml version="1.0" encoding="utf-8"?>
<!-- Generator: Adobe Illustrator 24.1.2, SVG Export Plug-In . SVG Version: 6.00 Build 0)  -->
<svg version="1.1" id="Layer_1" xmlns="http://www.w3.org/2000/svg" xmlns:xlink="http://www.w3.org/1999/xlink" x="0px" y="0px"
	 viewBox="0 0 32 32" style="enable-background:new 0 0 32 32;" xml:space="preserve">
<path d="M17.2,3.2C13,3.9,9.7,7.3,9.1,11.5c-0.4,3,0.5,5.7,2.1,7.8L3.6,27c-0.4,0.4-0.4,1,0,1.4l0,0c0.4,0.4,1.1,0.4,1.5,0l7.6-7.6
	c2.1,1.7,4.8,2.6,7.8,2.1c4.2-0.6,7.7-3.9,8.4-8.1C30,7.9,24.1,2,17.2,3.2z M18.1,5c5.1-0.5,9.3,3.7,8.8,8.8
	c-0.4,3.7-3.4,6.7-7.1,7.1c-5.1,0.5-9.3-3.7-8.8-8.8C11.4,8.4,14.4,5.4,18.1,5z"/>
</svg>
